<svg xmlns="http://www.w3.org/2000/svg" viewBox="0 0 119.7 204">
<!-- SVG created with Arrow, by QuiverAI (https://quiver.ai) -->
  <style type="text/css">.cls-0 {fill:#111A26;}
.cls-1 {fill:url(#SVGID_1_);}
.cls-2 {fill:url(#SVGID_2_);}
.cls-3 {fill:url(#SVGID_3_);}
.cls-4 {opacity:0.5;fill:url(#SVGID_4_);enable-background:new    ;}
.cls-5 {fill:url(#SVGID_5_);}
.cls-6 {fill:url(#SVGID_6_);}
.cls-7 {fill:url(#SVGID_7_);}</style>
  <linearGradient id="SVGID_1_" x1="38.04" x2="89.02" y1="-35.91" y2="-12.08" gradientTransform="matrix(1 0 0 -1 0 24)" gradientUnits="userSpaceOnUse">
    <stop stop-color="#0B4D97" offset="0"/>
    <stop stop-color="#0EDBF3" offset="1"/>
  </linearGradient>
  <path class="cls-1" d="m64.9 11.4c-12.8 0.3-21.4 6.1-25.9 13.6-3.3 5.6-4.6 12.2-4.1 18l1.1 11 3.2-2.8c7.3-6.5 17.8-11.2 32.1-11.2s21 2.9 24 4.3l14.2 2.7-1.9-6c-5.7-16.7-21.2-30.3-42.7-29.6z"/>
  <linearGradient id="SVGID_2_" x1="31.06" x2="49.1" y1="-84" y2="-46.31" gradientTransform="matrix(1 0 0 -1 0 24)" gradientUnits="userSpaceOnUse">
    <stop stop-color="#1C52CB" offset="0"/>
    <stop stop-color="#12BBF1" offset="1"/>
  </linearGradient>
  <path class="cls-2" d="m60.8 82.6c-8.6-8-18.2-17.7-21.5-31.1-2.6-10.5-1.4-26.3 10.7-34.2-6.5-2.1-22.5 11.6-25.9 15.7-5.1 5.4-9.1 12-10.8 19.7-1.3 6.4-1.4 26.3 19.2 44.3l6.8 6.5 21.5-20.9z"/>
  <linearGradient id="SVGID_3_" x1="82.2" x2="63.18" y1="-68.65" y2="-93.76" gradientTransform="matrix(1 0 0 -1 0 24)" gradientUnits="userSpaceOnUse">
    <stop stop-color="#211E75" offset="0"/>
    <stop stop-color="#5F33EA" offset=".4872"/>
    <stop stop-color="#8034FA" offset="1"/>
  </linearGradient>
  <path class="cls-3" d="m80.6 100.7-20.8 21.1c10.2 9.9 18.2 19.2 21.2 32.8 5 23.1-4.7 33.7-14.3 38h5.9c4.1-1.6 21.4-13.5 27.4-21.6 3.7-5.1 8.6-12.2 9.1-22 1.2-19-11.1-32.8-22.5-44l-6-6v1.7z"/>
  <linearGradient id="SVGID_4_" x1="36.7" x2="103.9" y1="-20.7" y2="-20.7" gradientTransform="matrix(1 0 0 -1 0 24)" gradientUnits="userSpaceOnUse">
    <stop stop-color="#1BAFE6" offset="0"/>
    <stop stop-color="#24DAFD" offset="1"/>
  </linearGradient>
  <path class="cls-4" d="m39.2 51.5c-1.2-4.5-1.6-10.6-0.2-18.6 3.8-14.9 14.3-21 28-20.7 11.8 0.2 23 2.2 33.8 13.7-6.8-7.9-17.4-14.2-28.5-14.1s-20.2 0.6-27.4 7.6c-10.9 10.7-9.8 25.6-5.7 35.7v-3.6zm42.7-12.5-8.9-0.4-8 0.4c-2.4 0.2 5.9 1 5.9 1h8.1l3 0.4-0.1-1.4z"/>
  <linearGradient id="SVGID_5_" x1="31.04" x2="76.74" y1="-80.11" y2="-130.3" gradientTransform="matrix(1 0 0 -1 0 24)" gradientUnits="userSpaceOnUse">
    <stop stop-color="#4C52EF" offset="0"/>
    <stop stop-color="#5F34EE" offset=".4951"/>
    <stop stop-color="#8033FB" offset="1"/>
  </linearGradient>
  <path class="cls-5" d="m80.4 153.6c-7.4 6.4-18.4 11.2-32.7 11.2-12.8 0-28.7-3.8-32.7-16.4v-3l-3.7-10.3 0.8 10.9c-1.6 3-0.2 12.3 2.5 19.1 5.5 12.9 17.8 27.7 38.3 27.9 10.7 0 15.9-1.4 25.1-7.1 10.9-7 17.8-12.9 22-18.4l-19.6-13.9z"/>
  <linearGradient id="SVGID_6_" x1="97.15" x2="78.05" y1="-11.46" y2="29.75" gradientTransform="matrix(1 0 0 -1 0 24)" gradientUnits="userSpaceOnUse">
    <stop stop-color="#1AC8EC" offset="0"/>
    <stop stop-color="#0DBDE6" offset="1"/>
  </linearGradient>
  <path class="cls-6" d="m66.1 11.4c-5.5 0-11.3 1.2-16.1 3.6 7.6-5 25.9-7.7 39.6 2.6 11.8 7.9 19.5 21.4 17.9 36.8l-2.1-2.9 3.9 22.5c2.9-5.3 3.8-14 3.1-22-1.4-16-15-40.6-42.4-40.6h-3.9z"/>
  <linearGradient id="SVGID_7_" x1="26.11" x2="80.67" y1="-90.24" y2="-38.01" gradientTransform="matrix(1 0 0 -1 0 24)" gradientUnits="userSpaceOnUse">
    <stop stop-color="#4124CC" offset="0"/>
    <stop stop-color="#4974F0" offset=".5101"/>
    <stop stop-color="#298BED" offset="1"/>
  </linearGradient>
  <path class="cls-7" d="m82.1 101.7c11.9-11.1 20.9-20.2 23.9-28.1 6.9-16.6-2.1-28.7-24.1-32.9-9.9-1.2-26.5-2.1-41.9 10.6 6.2-6 16-11.3 31.9-11.3 11.7-0.1 21.6 2.2 28.1 7.5 10.7 7.9 9.8 20.3 2 30.9-3.8 5.6-10.1 12.3-18 20l-27 24.6c-12.4 12.7-21 23.6-20 40.6-4-0.4-21.6-4.5-22.6-18.7-1.4-12.9 1.6-20.5 17-35.5l28.6-27.5c14.4-14.1 23-24.9 22.2-40.9 4.6 0.6 15.8 3.5 21.5 10.7 4.6 5.8 7.8 16.9-3.7 30.7-5.8 7.5-17.9 19.3-17.9 19.3z"/>
  <linearGradient id="SVGID_8_" x1="11.81" x2="82.41" y1="-124.8" y2="-124.8" gradientTransform="matrix(1 0 0 -1 0 24)" gradientUnits="userSpaceOnUse">
    <stop stop-color="#8F51FF" offset="0"/>
    <stop stop-color="#8E43EB" offset="1"/>
  </linearGradient>
  <path d="m13.8 131.5c-2.8 5.6-3.8 12.1-1.1 18.5 6.7 12.7 21.3 16.4 34.7 15.9 6.7-0.2 20.2-2.5 28.6-8.3-9 4.3-18.3 7.2-28.6 7.2-13.6 0-28.4-3.8-32.4-15.8-2.6-5-4.2-10-1.2-17.5z" fill="url(#SVGID_8_)"/>
  <linearGradient id="SVGID_9_" x1="82.9" x2="60.1" y1="-154.2" y2="-118.5" gradientTransform="matrix(1 0 0 -1 0 24)" gradientUnits="userSpaceOnUse">
    <stop stop-color="#390E86" offset="0"/>
    <stop stop-color="#5019BD" offset="1"/>
  </linearGradient>
  <path d="m47.5 191.6c13.5 1.4 32-1.8 34.9-20.2 1.1-6.7 0.2-13-1.9-17.7-2.6 3-14.5 10-29.5 11.7 4 0.3 20.8-1.3 28.5-11.9 3.6 8.5 2.2 21.2-4 27.9-6.5 7.6-13.7 10.8-28 10.2z" fill="url(#SVGID_9_)"/>
  <linearGradient id="SVGID_10_" x1="74.86" x2="82.34" y1="-114.7" y2="-152.4" gradientTransform="matrix(1 0 0 -1 0 24)" gradientUnits="userSpaceOnUse">
    <stop stop-color="#744AE9" offset="0"/>
    <stop stop-color="#9A4BEF" offset="1"/>
  </linearGradient>
  <path d="m60.2 122 0.8-0.6c6 4.6 18.9 17 21.4 34.2 1.4 11.4-2.5 28.8-19.7 35 10.7-1.2 20.1-11.9 19.8-28.6-0.3-16.2-9.9-30-22.3-40z" fill="url(#SVGID_10_)"/>
</svg>